<svg xmlns="http://www.w3.org/2000/svg" viewBox="0 0 112 116" width="112" height="116">
<g transform="translate(56,60) scale(1)">
<path d="M-30.4 -9.6 C-32 -36.8 32 -36.8 30.4 -9.6 C28.8 16 11.2 32 0 36.8 C-11.2 32 -28.8 16 -30.4 -9.6 Z" fill="#E9564F" stroke="#C24A44" stroke-width="2.6" stroke-linejoin="round"/>
<circle cx="-19.8" cy="-13.4" r="1.9" fill="#F7E9B0"/>
<circle cx="19.8" cy="-13.4" r="1.9" fill="#F7E9B0"/>
<circle cx="-9.6" cy="-22.4" r="1.9" fill="#F7E9B0"/>
<circle cx="9.6" cy="-22.4" r="1.9" fill="#F7E9B0"/>
<circle cx="-19.2" cy="9.6" r="1.9" fill="#F7E9B0"/>
<circle cx="19.2" cy="9.6" r="1.9" fill="#F7E9B0"/>
<circle cx="-9.6" cy="19.8" r="1.9" fill="#F7E9B0"/>
<circle cx="9.6" cy="19.8" r="1.9" fill="#F7E9B0"/>
<circle cx="0" cy="27.2" r="1.9" fill="#F7E9B0"/>
<path d="M0 -33.92 Q14.72 -44.16 20.48 -34.56 Q10.24 -27.52 0 -33.92 Z" fill="#6B9E58" stroke="#5E8A4E" stroke-width="2"/>
</g>
</svg>
